<?xml version="1.0" standalone="no"?><!DOCTYPE svg PUBLIC "-//W3C//DTD SVG 1.1//EN" "http://www.w3.org/Graphics/SVG/1.1/DTD/svg11.dtd"><svg t="1718175551187" class="icon" viewBox="0 0 1024 1024" version="1.1" xmlns="http://www.w3.org/2000/svg" p-id="4352" xmlns:xlink="http://www.w3.org/1999/xlink" width="24" height="24"><path d="M812.495 930.219H216.5c-64.239 0-116.5-52.262-116.5-116.501V217.516c0-64.239 52.262-116.5 116.5-116.5h595.996c64.238 0 116.5 52.262 116.5 116.5v596.202c-0.001 64.239-52.263 116.501-116.501 116.501zM216.5 165.015c-28.949 0-52.5 23.552-52.5 52.5v596.202c0 28.949 23.552 52.501 52.5 52.501h595.996c28.948 0 52.5-23.552 52.5-52.501V217.516c0-28.949-23.552-52.5-52.5-52.5H216.5z" fill="#1296db" p-id="4353"></path><path d="M257 531h64v277h-64zM399 439h64v367h-64zM551.022 351.197l63.999-0.41 2.912 455.007-64 0.41zM699 591h64v216.998h-64zM884.174 145.999H157.999c-6.6 0-12 5.4-12 12V270.74c0 6.6 5.4 12 12 12h726.175c6.6 0 12-5.4 12-12V157.999c0-6.6-5.4-12-12-12zM232 240c-19.882 0-36-16.118-36-36s16.118-36 36-36 36 16.118 36 36-16.118 36-36 36z m109-2c-19.882 0-36-16.118-36-36s16.118-36 36-36 36 16.118 36 36-16.118 36-36 36z m112.5-1.6c-19.882 0-36-16.118-36-36s16.118-36 36-36 36 16.118 36 36-16.118 36-36 36z" fill="#1296db" p-id="4354"></path></svg>